<!-- Generated by IcoMoon.io -->
<svg version="1.1" xmlns="http://www.w3.org/2000/svg" width="32" height="32" viewBox="0 0 32 32">
<title>antenna</title>
<path fill="#212121" d="M30.629 21.943l-8.229-8.229 0.914-4.571h0.914c1.179-0.1 2.098-1.082 2.098-2.278 0-1.262-1.023-2.286-2.286-2.286s-2.286 1.023-2.286 2.286c0 0.328 0.069 0.639 0.193 0.921l-0.006-0.015-5.029 0.457-7.771-8.229h-0.914l-1.371 1.829v0.457l0.457 0.914c-1.11 2.049-1.762 4.486-1.762 7.076 0 4.209 1.723 8.015 4.503 10.751l0.002 0.002v6.857h-6.4c-1.371 0-2.743 0.914-2.743 2.743v0.914l0.914 0.457h24.229l0.457-0.457v-0.914c0-1.829-0.914-2.743-2.286-2.743h-6.4v-2.743c0.748 0.132 1.61 0.207 2.49 0.207 2.787 0 5.398-0.756 7.638-2.074l-0.071 0.038 0.457 0.914 0.457 0.457 1.829-1.829v-0.914zM23.314 6.4c0.133-0.068 0.291-0.108 0.457-0.108 0.565 0 1.022 0.458 1.022 1.022 0 0.398-0.227 0.743-0.559 0.912l-0.006 0.003c-0.133 0.068-0.291 0.108-0.457 0.108-0.565 0-1.022-0.458-1.022-1.022 0-0.398 0.227-0.743 0.559-0.912l0.006-0.003zM21.943 9.6l-0.457 3.2-1.371-1.371 1.829-1.829zM21.486 8.686l-1.829 2.286-1.829-1.829 3.657-0.457zM24.229 28.8c0.457 0 1.371 0.914 1.371 1.829v0.457h-23.314v-0.457c0-0.914 0.457-1.829 1.371-1.829h20.571zM16.457 26.514v1.371h-5.029v-1.371h5.029zM11.429 25.6v-4.114c0-1.371 0.914-2.286 2.286-2.286 1.829 0 2.743 0.914 2.743 2.286v4.114h-5.029zM17.829 23.771v-2.286c0-1.829-1.829-3.2-4.114-3.2-1.371 0-2.286 0.457-3.2 1.829-4.114-4.571-5.029-10.971-2.286-16l18.743 18.743c-2.743 1.371-6.4 1.829-9.143 0.914zM28.8 23.314l-0.457-0.914-20.571-20.571 0.914-0.457 21.029 21.029-0.914 0.914z"></path>
<path fill="#757575" d="M13.714 20.114c-0.567 0.318-0.943 0.915-0.943 1.6s0.377 1.282 0.934 1.595l0.009 0.005c0.884 0 1.6-0.716 1.6-1.6s-0.716-1.6-1.6-1.6v0zM14.171 22.4c-0.067 0.034-0.145 0.054-0.229 0.054-0.282 0-0.511-0.229-0.511-0.511 0-0.199 0.114-0.371 0.28-0.456l0.003-0.001c0.067-0.034 0.145-0.054 0.229-0.054 0.282 0 0.511 0.229 0.511 0.511 0 0.199-0.114 0.371-0.28 0.456l-0.003 0.001z"></path>
</svg>
