<!-- Generated by IcoMoon.io -->
<svg version="1.1" xmlns="http://www.w3.org/2000/svg" width="32" height="32" viewBox="0 0 32 32">
<title>astronaut</title>
<path fill="#757575" d="M32 4.571l-0.457-0.457-1.829-0.457-0.914-1.371h-0.914l-0.914 1.371-1.829 0.457c-0.067-0.034-0.145-0.054-0.229-0.054-0.282 0-0.511 0.229-0.511 0.511 0 0.199 0.114 0.371 0.28 0.456l0.003 0.001 1.371 1.371-0.457 1.829c-0.034 0.067-0.054 0.145-0.054 0.229 0 0.282 0.229 0.511 0.511 0.511 0.199 0 0.371-0.114 0.456-0.28l0.001-0.003 1.829-0.914 1.829 0.914c0.252 0 0.457-0.205 0.457-0.457v0-1.829l1.371-1.371v-0.457zM29.714 5.943l-0.457 0.457 0.457 0.914-1.371-0.457c-0.066-0.038-0.144-0.061-0.229-0.061s-0.163 0.023-0.231 0.062l0.002-0.001-0.914 0.457 0.457-0.914-1.371-1.371h1.371l0.457-0.457 0.457-0.914 0.457 0.914 0.457 0.457h0.914l-0.457 0.914zM26.057 20.571h-0.914v0.914h0.914v-0.914zM26.057 22.857h-0.914v0.914h0.914v-0.914zM27.429 21.486h-1.371v1.371h1.371v-1.371zM25.143 21.486h-0.914v1.371h0.914v-1.371zM22.4 26.514h-0.914v0.914h0.914v-0.914zM22.4 28.343h-0.914v1.371h0.914v-1.371zM23.314 27.429h-0.914v0.914h0.914v-0.914zM21.486 27.429h-1.371v0.914h1.371v-0.914zM16 24.229h-0.914v0.914h0.914v-0.914zM16 26.514h-0.914v0.914h0.914v-0.914zM16.914 25.143h-0.914v1.371h0.914v-1.371zM15.086 25.143h-1.371v1.371h1.371v-1.371zM5.943 5.943h-1.371v1.371h1.371v-1.371zM5.943 8.229h-1.371v0.914h1.371v-0.914zM6.857 7.314h-0.914v0.914h0.914v-0.914zM4.571 7.314h-0.914v0.914h0.914v-0.914z"></path>
<path fill="#212121" d="M24.686 14.171l-1.371-0.914-0.914 0.457-1.371 0.914-1.829 1.371-1.371-0.457c2.677-0.975 4.555-3.498 4.555-6.459 0-3.787-3.070-6.857-6.857-6.857-0.316 0-0.628 0.021-0.933 0.063l0.036-0.004c-3.787 0-6.857 3.070-6.857 6.857 0 1.551 0.515 2.983 1.384 4.132l-0.012-0.017h-3.2l-3.2 1.371-1.829 0.914c-0.559 0.324-0.929 0.919-0.929 1.6 0 1.018 0.825 1.843 1.843 1.843 0.336 0 0.652-0.090 0.923-0.248l-0.009 0.005 1.371-0.914 2.286-0.914h1.371l-6.857 6.857c-0.25 0.31-0.401 0.709-0.401 1.143s0.151 0.833 0.404 1.146l-0.003-0.004c0.31 0.25 0.709 0.401 1.143 0.401s0.833-0.151 1.146-0.404l-0.004 0.003 1.371-1.371 1.829-1.371 0.914 0.914-3.2 3.2c-0.25 0.31-0.401 0.709-0.401 1.143s0.151 0.833 0.404 1.146l-0.003-0.004c0.31 0.25 0.709 0.401 1.143 0.401s0.833-0.151 1.146-0.404l-0.004 0.003 4.571-4.571 5.029-5.486 3.657 0.457h0.457l3.2-2.286 1.371-1.371v-2.286zM2.286 17.829h-0.914c-0.19-0.168-0.31-0.413-0.31-0.686s0.119-0.517 0.309-0.685l0.001-0.001 1.371-0.457 0.457 0.914v0.457l-0.914 0.457zM5.486 16l-1.371 0.914-0.457-0.914v-0.457l1.829-0.914v1.371zM20.571 9.143l-0.457 2.743-4.114-1.829-0.914-1.371 1.371-5.029c2.743 0.914 4.114 3.2 4.114 5.486zM9.143 9.143c0.235-3.088 2.799-5.505 5.927-5.505 0.167 0 0.332 0.007 0.495 0.020l-0.021-0.001-1.371 4.571c-0.914 0-1.829 0.914-1.829 1.829 0.137 0.886 0.894 1.557 1.808 1.557 0.556 0 1.054-0.248 1.39-0.64l0.002-0.002 4.114 1.829c-1.098 1.316-2.738 2.147-4.573 2.147-3.234 0-5.864-2.582-5.941-5.797l-0-0.007zM15.086 10.057l-0.914 0.914-0.914-0.914 0.914-0.914 0.914 0.914zM2.286 25.143h-0.457c-0.252 0-0.457-0.205-0.457-0.457s0.205-0.457 0.457-0.457v0l0.914-0.914 0.457 0.914-0.914 0.914zM5.486 28.8h-0.457c-0.252 0-0.457-0.205-0.457-0.457s0.205-0.457 0.457-0.457v0l0.914-0.914 0.914 0.914-1.371 0.914zM9.143 25.6l-1.829 1.371h-0.457l-0.457-0.457 1.829-1.829v-0.914l-1.829-1.829h-0.457l-1.829 1.371-0.914-0.914 2.743-2.286 4.114 4.571-0.914 0.914zM16 18.286c-0.252 0-0.457 0.205-0.457 0.457v0l-4.571 5.029-4.571-4.114 2.743-3.2c0.252 0 0.457-0.205 0.457-0.457s-0.205-0.457-0.457-0.457v0h-2.286v-1.371h3.2c1.232 1.194 2.915 1.93 4.769 1.93 0.415 0 0.821-0.037 1.216-0.107l-0.042 0.006h0.457l2.286 1.371v0.457l0.457 0.914-3.2-0.457zM20.114 18.743l-0.457-1.829 1.371-0.914 0.457 0.457 0.457 0.914-1.829 1.371zM23.771 15.543l-0.914 0.914-0.914-1.371 0.914-0.457h0.457c0.279 0.16 0.465 0.456 0.465 0.796 0 0.042-0.003 0.083-0.008 0.123l0-0.005z"></path>
<path fill="#212121" d="M13.714 18.743l-2.286-2.286h-0.914l-1.829 2.286c-0.039 0.066-0.061 0.144-0.061 0.229s0.023 0.163 0.062 0.231l-0.001-0.002 1.829 2.286c0 0.252 0.205 0.457 0.457 0.457s0.457-0.205 0.457-0.457v0l2.286-2.286c0.039-0.066 0.061-0.144 0.061-0.229s-0.023-0.163-0.062-0.231l0.001 0.002zM10.971 20.114l-1.371-1.371 1.371-1.371 1.371 1.371-1.371 1.371zM17.371 5.029l-0.457 0.914s1.829 0.457 1.829 2.286h0.914c0-1.829-1.829-2.743-2.286-3.2zM19.657 9.143h-0.914v1.371h0.914v-1.371z"></path>
</svg>
