<!-- Generated by IcoMoon.io -->
<svg version="1.1" xmlns="http://www.w3.org/2000/svg" width="32" height="32" viewBox="0 0 32 32">
<title>clock</title>
<path fill="#212121" d="M31.086 15.086c-0.142-8.222-6.841-14.833-15.084-14.833-8.332 0-15.086 6.754-15.086 15.086 0 6.698 4.365 12.376 10.405 14.346l0.107 0.030h0.457l0.457-0.457 3.657-11.886c0.827-0.212 1.428-0.95 1.428-1.829 0-1.041-0.844-1.885-1.885-1.885-0.162 0-0.32 0.021-0.47 0.059l0.013-0.003-5.029-5.029c-0.117-0.117-0.279-0.189-0.457-0.189-0.357 0-0.646 0.289-0.646 0.646 0 0.179 0.072 0.34 0.189 0.457l5.029 5.029c-0.457 0.457 0 1.829 0.457 2.286l-3.657 11.429c-5.571-1.993-9.486-7.227-9.486-13.374 0-7.827 6.345-14.171 14.171-14.171s14.171 6.345 14.171 14.171c0 5.715-3.383 10.639-8.255 12.881l-0.088 0.036v-1.829c0-0.379-0.307-0.686-0.686-0.686s-0.686 0.307-0.686 0.686v0l-3.657 3.2c-0.379 0-0.686 0.307-0.686 0.686s0.307 0.686 0.686 0.686v0l5.029 1.371c0.117 0.117 0.279 0.189 0.457 0.189 0.357 0 0.646-0.289 0.646-0.646 0-0.179-0.072-0.34-0.189-0.457v0l-0.457-1.829c5.486-2.286 9.143-7.771 9.143-14.171zM16 14.629c0.379 0 0.686 0.307 0.686 0.686s-0.307 0.686-0.686 0.686v0c-0.379 0-0.686-0.307-0.686-0.686s0.307-0.686 0.686-0.686v0zM18.286 29.714l1.829-2.286 0.914 3.2-2.743-0.914z"></path>
<path fill="#757575" d="M15.543 3.2v1.371c0 0.252 0.205 0.457 0.457 0.457s0.457-0.205 0.457-0.457v0-1.371c0-0.252-0.205-0.457-0.457-0.457s-0.457 0.205-0.457 0.457v0zM3.657 14.629c-0.379 0-0.686 0.307-0.686 0.686s0.307 0.686 0.686 0.686v0h1.371c0.379 0 0.686-0.307 0.686-0.686s-0.307-0.686-0.686-0.686v0h-1.371zM27.886 16c0.379 0 0.686-0.307 0.686-0.686s-0.307-0.686-0.686-0.686v0h-0.914c-0.379 0-0.686 0.307-0.686 0.686s0.307 0.686 0.686 0.686v0h0.914z"></path>
</svg>
