<!-- Generated by IcoMoon.io -->
<svg version="1.1" xmlns="http://www.w3.org/2000/svg" width="32" height="32" viewBox="0 0 32 32">
<title>diagram</title>
<path fill="#757575" d="M15.086 15.086h0.914v4.571h-0.914v-4.571zM19.2 16.914h0.914v2.743h-0.914v-2.743zM10.514 18.743h1.371v0.914h-1.371v-0.914zM7.314 18.286h1.371v1.371h-1.371v-1.371z"></path>
<path fill="#212121" d="M1.371 28.343h25.6c0.914 0 1.829-0.914 1.829-1.829v-1.829c0-0.914-0.914-1.829-1.829-1.829h-0.457v-13.257l3.2-2.743c0.221 0.102 0.48 0.162 0.752 0.162 1.010 0 1.829-0.819 1.829-1.829s-0.819-1.829-1.829-1.829c-1.010 0-1.829 0.819-1.829 1.829 0 0.273 0.060 0.531 0.167 0.764l-0.005-0.011-2.286 2.286v-1.371c0-0.914-0.457-1.371-1.371-1.371h-21.486c-0.914 0-1.371 0.457-1.371 1.371v16h-0.914c-0.457 0-1.371 0.914-1.371 1.829v1.829c0 0.914 0.914 1.829 1.371 1.829zM30.171 5.029c0.252 0 0.457 0.205 0.457 0.457s-0.205 0.457-0.457 0.457v0c-0.252 0-0.457-0.205-0.457-0.457s0.205-0.457 0.457-0.457v0zM3.2 6.857l0.457-0.457h21.486l0.457 0.457v2.286l-0.914 0.914v-1.829l-0.914-0.914h-19.2l-0.457 0.914v13.257l0.457 0.457h19.2l0.914-0.457v-9.6l0.914-1.371v12.343h-22.4v-16zM7.771 13.714c-0.507 0.257-0.848 0.775-0.848 1.371 0 0.847 0.686 1.533 1.533 1.533 0.25 0 0.486-0.060 0.694-0.166l-0.009 0.004 1.829 0.914h0.457l4.114-4.571 3.657 3.2h0.914l3.2-3.2v8.229h-17.829v-12.343h17.829v2.743l-3.657 3.2-3.657-2.743h-0.914l-4.114 4.571-1.371-0.914c0-0.914-0.914-1.829-1.829-1.829zM8.686 15.543c0 0.379-0.307 0.686-0.686 0.686s-0.686-0.307-0.686-0.686v0c0-0.379 0.307-0.686 0.686-0.686s0.686 0.307 0.686 0.686v0zM11.886 24.229h5.029v0.457l-0.457 0.457h-4.114l-0.457-0.457v-0.457zM0.914 24.686l0.457-0.457h9.143v0.457c0 0.914 0.914 1.371 1.829 1.371h4.114c0.914 0 1.829-0.457 1.829-1.371v-0.457h8.686l0.914 0.457v1.829l-0.914 0.914h-25.6l-0.457-0.914v-1.829z"></path>
</svg>
