<!-- Generated by IcoMoon.io -->
<svg version="1.1" xmlns="http://www.w3.org/2000/svg" width="32" height="32" viewBox="0 0 32 32">
<title>instagram</title>
<path fill="#afb1b8"  d="M32 9.6v-4.8l-3.2-1.6-1.6-1.6-4.8-1.6c-6.261 0.060-12.343 0.64-18.259 1.698l0.659-0.098-3.2 3.2-1.6 4.8c0.060 6.261 0.64 12.343 1.698 18.259l-0.098-0.659 3.2 3.2 4.8 1.6c6.289-0.097 12.369-0.675 18.296-1.7l-0.696 0.1 4.8-3.2v-4.8c0.112-1.912 0.175-4.149 0.175-6.4s-0.064-4.488-0.189-6.708l0.014 0.308zM28.8 22.4v3.2l-3.2 3.2h-3.2c-2.394 0.182-5.185 0.286-8 0.286s-5.606-0.104-8.369-0.308l0.369 0.022-3.2-3.2v-3.2c-0.182-2.394-0.286-5.185-0.286-8s0.104-5.606 0.308-8.369l-0.022 0.369 3.2-3.2h3.2c2.394-0.18 5.185-0.282 8-0.282s5.606 0.102 8.37 0.304l-0.37-0.022 3.2 3.2v3.2c0.117 1.913 0.183 4.149 0.183 6.4s-0.066 4.487-0.197 6.706l0.014-0.306z"></path>
<path fill="#afb1b8" d="M16 8c-4.418 0-8 3.582-8 8s3.582 8 8 8v0c4.418 0 8-3.582 8-8s-3.582-8-8-8v0zM16 20.8c-2.651 0-4.8-2.149-4.8-4.8s2.149-4.8 4.8-4.8v0c2.651 0 4.8 2.149 4.8 4.8s-2.149 4.8-4.8 4.8v0zM27.2 8c0 1.325-1.075 2.4-2.4 2.4s-2.4-1.075-2.4-2.4v0c0-1.325 1.075-2.4 2.4-2.4s2.4 1.075 2.4 2.4v0z"></path>
</svg>
