<!-- Generated by IcoMoon.io -->
<svg version="1.1" xmlns="http://www.w3.org/2000/svg" width="57" height="32" viewBox="0 0 57 32">
<title>Logo5</title>
<path fill="#afb1b8" d="M28.267 14.4v-3.2l1.067-0.533h1.067l0.533 1.067v0.533h-1.067v-1.067h-0.533v3.2h0.533v-1.067h1.067v0.533l-0.533 0.533-1.067 0.533-1.067-0.533zM32 14.4v-3.733h2.133l0.533 1.067v1.6l-0.533 1.067-1.067 0.533-1.067-0.533zM33.6 14.4v-3.2h-0.533l-0.533 0.533v2.133l0.533 0.533c0.077 0.045 0.168 0.071 0.267 0.071s0.19-0.027 0.269-0.073l-0.003 0.001zM35.733 10.667h1.067l0.533 3.2 0.533-3.2h1.067v4.267h-0.533v-3.2l-0.533 3.2h-0.533l-1.067-3.2v3.2h-0.533v-4.267zM40 10.667h1.6c1.067 0 1.067 0.533 1.067 1.067 0 1.067 0 1.067-1.067 1.067h-0.533v2.133h-1.067v-4.267zM41.6 12.267h0.533v-1.067h-1.067v1.067h0.533zM44.267 10.667h1.067l1.067 4.267h-1.067v-1.067h-1.067v1.067h-1.067l1.067-4.267zM44.8 13.333v-1.6l-0.533 1.6h0.533zM46.933 10.667h0.533l1.6 2.667v-2.667h0.533v4.267h-0.533l-1.067-2.667v2.667h-1.067v-4.267zM51.2 13.333l-1.067-2.667h1.067l0.533 1.6 0.533-1.6h1.067l-1.067 2.667v1.6h-1.067v-1.6zM29.867 17.067h-0.533v1.6h-0.533v-1.6h1.067zM32 18.667l-0.533-0.533h-1.067v0.533h-0.533l1.067-1.6h0.533l0.533 1.6zM30.933 18.133h0.533v-1.067h-0.533v1.067zM33.6 18.667h0.533v-1.067h0.533v1.067c-0.080 0.014-0.172 0.022-0.267 0.022s-0.187-0.008-0.276-0.024l0.010 0.001h-1.067l-0.533-0.533v-0.533l0.533-0.533c0.159-0.058 0.342-0.091 0.533-0.091s0.375 0.034 0.544 0.095l-0.011-0.004c0.080-0.021 0.172-0.034 0.267-0.034s0.187 0.012 0.274 0.036l-0.007-0.002h-0.533c-0.080-0.021-0.172-0.034-0.267-0.034s-0.187 0.012-0.274 0.036l0.007-0.002h-0.533v1.6c0.077 0.045 0.168 0.071 0.267 0.071s0.19-0.027 0.269-0.073l-0.003 0.001zM36.8 18.667h-0.533v-1.6h0.533v1.6zM38.933 18.667h-0.533v-1.6h0.533v1.6zM40 17.067l1.067 1.067v-1.067h0.533v1.6h-0.533l-1.067-1.6v1.6h-0.533v-1.6h0.533zM43.733 17.067h-1.067v0.533h1.067v0.533h-1.067v0.533h-0.533v-1.6h1.6zM11.2 4.8l13.867 3.2v11.733l-13.867-3.2v-11.733zM10.667 3.733v13.333l15.467 3.733v-13.333l-15.467-3.733z"></path>
<path fill="#afb1b8" d="M18.667 27.2l-15.467-3.733v-13.867l15.467 4.267v13.333z"></path>
<path fill="#afb1b8" d="M10.667 4.267l13.333 3.733-5.333 4.8-13.867-3.2 5.867-5.333zM10.667 3.733l-7.467 5.867 15.467 4.267 7.467-6.4-15.467-3.733zM19.733 26.133l6.4-5.333-6.4-1.6v6.933z"></path>
</svg>
