<!-- Generated by IcoMoon.io -->
<svg version="1.1" xmlns="http://www.w3.org/2000/svg" width="57" height="32" viewBox="0 0 57 32">
<title>Logo3</title>
<path fill="#afb1b8" d="M19.2 26.133h0.533l-0.533 0.533h-1.067v-0.533h-0.533c-0.090-0.153-0.143-0.337-0.143-0.533s0.053-0.38 0.146-0.538l-0.003 0.005h0.533v-0.533c0.159-0.058 0.342-0.091 0.533-0.091s0.375 0.034 0.544 0.095l-0.011-0.004 0.533 0.533h-0.533c-0.080-0.021-0.172-0.034-0.267-0.034s-0.187 0.012-0.274 0.036l0.007-0.002h-0.533v1.067h1.067zM22.933 25.6v0.533h-0.533v0.533h-1.067l-0.533-0.533v-1.067l0.533-0.533h1.067v0.533c0.238 0.109 0.424 0.296 0.531 0.527l0.003 0.007zM22.4 25.6v-0.533c-0.076-0.045-0.168-0.071-0.267-0.071s-0.19 0.027-0.269 0.073l0.003-0.001h-1.067v1.067c0.076 0.045 0.168 0.071 0.267 0.071s0.19-0.027 0.269-0.073l-0.003 0.001h1.067v-0.533zM25.067 26.133l1.067-1.6v0.533l-1.067 1.067-1.067-1.067v1.6-2.133h0.533l0.533 1.6zM27.733 25.6v1.067-2.133h1.067v1.067l-0.533 0.533-0.533-0.533zM27.733 25.6h1.067v-0.533h-1.067v0.533zM32 26.667h-0.533v-0.533h-1.067l-0.533 0.533 0.533-2.133h0.533l1.067 2.133zM30.4 26.133h0.533v-1.067l-0.533 1.067zM33.067 24.533l1.067 1.6v-1.6h0.533v2.133h-0.533l-1.067-1.6v1.6-2.133zM36.8 25.6v1.067h-0.533v-1.067l-0.533-1.067h0.533v1.067c0.080-0.021 0.172-0.034 0.267-0.034s0.187 0.012 0.274 0.036l-0.007-0.002zM25.067 21.333c2.133-0.533 3.733-1.6 4.8-3.2 1.6-1.6 2.133-3.733 2.133-5.333l-2.133-2.133c0 2.133 0 4.267-1.067 5.867-0.533 2.133-2.133 3.733-3.733 4.8z"></path>
<path fill="#afb1b8" d="M24 21.333c2.133-1.067 3.733-2.667 4.267-4.8 1.067-2.133 1.067-4.267 0.533-6.4l-3.2-2.667c0.983 1.679 1.564 3.698 1.564 5.852 0 3.102-1.204 5.923-3.17 8.021l0.006-0.006zM34.667 14.933c-0.533 2.133-1.6 3.733-3.733 5.333l-1.6 1.067 3.733-2.133 2.667-3.2-1.067-1.067z"></path>
<path fill="#afb1b8" d="M34.133 14.4l-1.6-1.6c0 2.133-1.067 3.733-2.133 5.333s-2.133 2.667-4.267 3.2h1.6l4.267-2.667 2.133-4.267zM24.533 6.4l-2.133-1.6c-2.133 0.533-3.733 1.6-4.8 3.2-1.067 1.067-1.6 3.2-1.6 4.8 0 2.133 0.533 3.733 2.133 5.333 1.067 1.6 3.2 2.667 5.333 3.2 2.133-2.133 3.2-4.8 3.2-7.467s-0.533-5.333-2.133-7.467zM38.933 14.4c0-2.667-1.067-4.8-2.667-6.4-1.881-1.697-4.386-2.736-7.133-2.736-1.266 0-2.481 0.221-3.608 0.626l0.074-0.023 12.8 11.733 0.533-3.2z"></path>
</svg>
