<!-- Generated by IcoMoon.io -->
<svg version="1.1" xmlns="http://www.w3.org/2000/svg" width="57" height="32" viewBox="0 0 57 32">
<title>Logo2</title>
<path fill="#afb1b8" d="M12.8 11.2c-1.067 0-2.133 1.067-2.133 2.133s1.067 2.133 2.133 2.133c1.6 0 2.133-1.067 2.133-2.133s-0.533-2.133-2.133-2.133zM29.867 10.667c0-1.6-0.533-3.2-1.6-4.267l-4.8-1.6c-2.133 0-3.733 0.533-4.8 1.6-1.6 1.067-2.133 2.667-2.133 4.267v8.533s13.333-1.067 13.333-8.533zM5.867 22.4c0 1.067 0.533 2.133 1.6 2.667l3.2 1.067 3.2-1.067c1.067-0.533 1.067-1.6 1.067-2.667v-6.4s-9.067 1.067-9.067 6.4zM10.667 23.467l-1.067-0.533v-0.533l-0.533-0.533 0.533-0.533h2.133c0.113 0.167 0.18 0.372 0.18 0.593 0 0.463-0.294 0.856-0.706 1.004l-0.007 0.002-0.533 0.533zM19.733 22.4h-0.533v1.067h-0.533v-2.133h1.6v0.533h-1.067v0.533h0.533zM22.4 22.4l-0.533 0.533c-0.109 0.238-0.296 0.424-0.527 0.531l-0.007 0.003h-0.533l-0.533-0.533v-1.067c0.187-0.326 0.532-0.542 0.929-0.542 0.049 0 0.096 0.003 0.143 0.010l-0.005-0.001h0.533v0.533l0.533 0.533zM21.867 22.4v-0.533h-1.067v1.067l0.533 0.533 0.533-0.533v-0.533zM23.467 22.933v-0.533h-0.533l-0.533-0.533v-0.533h1.6v0.533h-1.067l0.533 0.533h0.533v1.067h-1.6v-0.533h0.533l0.533 0.533v-0.533zM26.133 21.867h-0.533v1.6h-0.533v-1.6h-0.533v-0.533h1.6v0.533zM27.733 22.4h-0.533v1.067h-0.533v-2.133h1.6v0.533h-1.067v0.533h0.533zM29.333 22.933h-0.533v0.533h-0.533v-2.133h1.6v1.067h-0.533l0.533 1.067h-0.533v-0.533zM28.8 22.4h0.533v-0.533h-0.533v0.533zM31.467 22.933v0.533h-0.533v-2.133h1.6v0.533h0.533l-1.067 1.067h-0.533zM31.467 22.4h1.067v-0.533h-1.067v0.533zM34.667 22.4h-1.067v1.067h-0.533v-2.133h1.6v0.533h-1.067v0.533h1.067zM36.8 21.867h-0.533v1.6h-0.533v-1.6h-1.067v-0.533h2.133v0.533zM38.4 22.4h-1.067v1.067h-0.533v-2.133h1.6v0.533h-1.067v0.533h1.067zM39.467 22.933v0.533h-0.533v-2.133h1.6v1.067h-0.533l0.533 1.067h-0.533l-0.533-0.533zM39.467 22.4h0.533v-0.533h-0.533v0.533zM42.133 22.933l-0.533-0.533h-0.533v-1.067h1.067l0.533 0.533h-1.067v0.533h0.533l0.533 0.533-0.533 0.533h-1.067l-0.533-0.533h0.533l0.533 0.533 0.533-0.533z"></path>
</svg>
