<!-- Generated by IcoMoon.io -->
<svg version="1.1" xmlns="http://www.w3.org/2000/svg" width="57" height="32" viewBox="0 0 57 32">
<title>Logo4</title>
<path fill="#afb1b8" d="M14.4 24v1.067h-2.667v-3.2h1.6l0.533 0.533h0.533v1.067h-0.533l0.533 0.533zM12.267 23.467h1.067l0.533-0.533-0.533-0.533h-1.067v1.067zM13.333 24.533h0.533v-0.533h-1.6v0.533h1.067zM17.6 25.067l-1.067-1.067h-0.533v1.067h-0.533v-3.2h1.6l1.067 1.067v0.533l-1.067 0.533 1.067 1.067h-0.533zM16 23.467h1.067l0.533-0.533h-0.533v-0.533h-1.067v1.067zM21.333 24.533h-1.6v0.533h-1.067l1.6-3.2h0.533l1.6 3.2h-1.067v-0.533zM21.333 24l-0.533-1.067-0.533 1.067h1.067zM26.133 25.067h-0.533l-1.6-2.133v2.133h-0.533v-3.2h0.533l1.6 2.133v-2.133h0.533v3.2zM30.4 24.533l-0.533 0.533h-2.133v-3.2h1.067l1.067 0.533 0.533 0.533c0.135 0.23 0.214 0.505 0.214 0.8s-0.080 0.57-0.218 0.808l0.004-0.008zM29.333 24.533l0.533-1.067-1.067-1.067h-0.533v2.133h1.067zM21.867 3.733s9.067 3.2 9.067 8v7.467s-9.6-3.2-9.067-7.467v-8zM38.933 17.6c2.133-1.067 4.267-2.133 6.4-2.133v-2.667c-2.667 1.067-4.8 2.667-6.4 4.8z"></path>
<path fill="#afb1b8" d="M37.867 18.133c1.6-2.667 4.267-4.8 7.467-5.867v-6.933s-13.333 4.8-13.333 11.2v11.2l1.6-0.533v-1.067c0.533-3.2 2.133-5.867 4.267-8z"></path>
<path fill="#afb1b8" d="M36.8 22.4l0.533-2.133c-1.557 1.688-2.55 3.918-2.666 6.377l-0.001 0.023 2.667-1.067-0.533-3.2zM37.333 22.4v3.2c3.733-2.133 8-5.333 8-9.067-2.667 0-5.333 1.067-6.933 2.667l-1.067 3.2z"></path>
</svg>
