<!-- Generated by IcoMoon.io -->
<svg version="1.1" xmlns="http://www.w3.org/2000/svg" width="57" height="32" viewBox="0 0 57 32">
<title>Logo1</title>
<path fill="#afb1b8" d="M26.667 3.2h0.533l1.6 0.533v-1.6l0.11 0.028c-0.872-0.262-1.776-0.45-2.776-0.562h0.001c-0.006 0-0.012 0-0.019 0-2.938 0-5.692 0.792-7.982 2.133v15.467l-0.084 0.044c2.082-1.19 4.44-1.954 7.017-2.177h1.067v-1.6l-0.033 0.001c-2.087 0.069-4.095 0.454-5.834 1.066h-0.533v-11.733c1.6-1.067 3.733-1.6 5.867-1.6l-0.014 0c0.093-0.002 0.187-0.003 0.281-0.003s0.187 0.001 0.267 0.003h0.533zM29.333 4.8h1.067c2.944-0.023 5.698-0.811 8.081-2.176l-0.081 0.043v14.933c-2.189 1.198-4.796 1.903-7.568 1.903-1.096 0-2.167-0.11-3.202-0.32l0.103 0.017v-14.933c0.434 0.186 0.967 0.369 1.514 0.514l0.086 0.019zM36.8 4.8h-0.533l-1.067 0.533c-1.366 0.369-2.935 0.581-4.553 0.581-0.462 0-0.92-0.017-1.374-0.051l0.060 0.004h-0.533v12.267h1.6c2.343-0.034 4.541-0.621 6.479-1.638l-0.079 0.038v-11.733z"></path>
<path fill="#afb1b8" d="M19.2 24c-0.076-0.045-0.168-0.071-0.267-0.071s-0.19 0.027-0.269 0.073l0.003-0.001h-0.533c-0.238 0.109-0.424 0.296-0.531 0.527l-0.003 0.007v2.667h0.533v0.533h0.533c0.326-0.187 0.542-0.532 0.542-0.929 0-0.049-0.003-0.096-0.010-0.143l0.001 0.005h-0.533v0.533c-0.076 0.045-0.168 0.071-0.267 0.071s-0.19-0.027-0.269-0.073l0.003 0.001v-2.667c0.076-0.045 0.168-0.071 0.267-0.071s0.19 0.027 0.269 0.073l-0.003-0.001v0.533h0.533v-0.533c0.021-0.080 0.034-0.172 0.034-0.267s-0.012-0.187-0.036-0.274l0.002 0.007zM22.4 24c-0.153-0.090-0.337-0.143-0.533-0.143s-0.38 0.053-0.538 0.146l0.005-0.003h-0.533v3.2l0.533 0.533c0.080 0.021 0.172 0.034 0.267 0.034s0.187-0.012 0.274-0.036l-0.007 0.002 0.533-0.533c0.021-0.080 0.034-0.172 0.034-0.267s-0.012-0.187-0.036-0.274l0.002 0.007v-2.667zM21.867 26.667c0.045 0.076 0.071 0.168 0.071 0.267s-0.027 0.19-0.073 0.269l0.001-0.003c-0.076 0.045-0.168 0.071-0.267 0.071s-0.19-0.027-0.269-0.073l0.003 0.001c-0.045-0.076-0.071-0.168-0.071-0.267s0.027-0.19 0.073-0.269l-0.001 0.003v-2.133c0.076-0.045 0.168-0.071 0.267-0.071s0.19 0.027 0.269 0.073l-0.003-0.001v2.133zM26.133 27.733v-3.733h-0.533l-0.533 1.6-0.533-1.6h-0.533v3.733h0.533v-2.133l0.533 1.067 0.533-1.067v2.133h0.533zM29.333 24h-1.6v3.733h0.533v-1.6h1.067v-0.533c0.034-0.16 0.054-0.345 0.054-0.533s-0.020-0.373-0.057-0.551l0.003 0.017v-0.533zM28.8 25.067v0.533h-0.533v-1.067h0.533v0.533zM32 24h-0.533l-1.067 3.733h0.533l0.533-1.067h0.533v1.067h0.533l-0.533-3.733zM31.467 26.133v-1.067l0.533 1.067h-0.533zM35.2 26.133l-1.067-2.133v1.6h0.533l0.533 2.133h0.533v-3.733h-0.533v2.133zM38.4 24l-0.533 1.6-0.533-1.6h-0.533l1.067 2.133v1.6h0.533v-1.6l0.533-2.133h-0.533zM17.6 28.8v0.533h0.533v-1.067h-0.533v0.533zM19.733 28.267l-0.533 1.067h1.067l-0.533-1.067zM21.867 28.8v0.533l-0.533-0.533h1.067l-0.533-0.533-0.533 0.533v0.533c0.076 0.045 0.168 0.071 0.267 0.071s0.19-0.027 0.269-0.073l-0.003 0.001h0.533v-0.533h-0.533zM24 28.267v0zM25.6 28.267v0zM27.733 28.8l-0.533-0.533v0.533l0.533 0.533v-0.533zM29.333 28.8v-0.533h-0.533v1.067h0.533v-0.533zM33.067 28.8h-0.533v0h0.533v0zM34.667 28.8h0.533v-0.533h-0.533v0.533zM36.8 28.8v-0.533h-0.533v0.533h0.533v0zM36.8 28.8v0zM38.4 28.8h0.533v-0.533h-0.533v0.533z"></path>
</svg>
