<!-- Generated by IcoMoon.io -->
<svg version="1.1" xmlns="http://www.w3.org/2000/svg" width="57" height="32" viewBox="0 0 57 32">
<title>Logo6</title>
<path fill="#afb1b8" d="M20.267 3.733l3.733 3.733h-6.933v17.067h18.133v-6.4l3.733 3.2v-17.6h-18.667zM35.2 17.6l-10.667-10.133h10.667v10.133zM32 21.867h-12.267v-11.733h1.067v11.2h11.2v0.533zM22.933 26.667l-0.533 1.067-0.533-1.067h-0.533l0.533 1.067v1.067h0.533v-1.067l0.533-1.067zM23.467 28.8v-0.533h0.533l0.533 0.533-0.533-2.133h-0.533l-0.533 2.133h0.533zM24 27.2v0.533h-0.533l0.533-0.533zM25.6 27.733v0.533l0.533 0.533 0.533-0.533v0.533h0.533l-1.067-1.067 0.533-0.533c0.045-0.076 0.071-0.168 0.071-0.267s-0.027-0.19-0.073-0.269l0.001 0.003h-1.067v1.067zM26.133 28.267h-0.533l0.533-0.533v0.533zM29.333 28.267v-0.533h-0.533v0.533h-0.533v-1.067h1.067v-0.533h-1.067l-0.533 0.533v1.067l0.533 0.533h0.533l0.533-0.533zM30.933 28.267v-1.067c0-0.295-0.239-0.533-0.533-0.533v0h-0.533v0.533l-0.533 0.533 1.067 1.067 0.533-0.533zM30.933 27.2v1.067h-1.067v-1.067h1.067z"></path>
</svg>
