<!-- Generated by IcoMoon.io -->
<svg version="1.1" xmlns="http://www.w3.org/2000/svg" width="32" height="32" viewBox="0 0 32 32">
<title>twitter</title>
<path fill="#757575" d="M32 6.4h-3.2l1.6-3.2-3.2 1.6c-1.133-1.955-3.215-3.25-5.6-3.25-3.562 0-6.45 2.888-6.45 6.45 0 1.177 0.315 2.281 0.866 3.231l-0.017-0.031c-6.4 0-11.2-3.2-14.4-6.4-0.257 0.666-0.406 1.437-0.406 2.242 0 2.518 1.454 4.696 3.568 5.741l0.037 0.017h-3.2c0 3.2 1.6 4.8 4.8 6.4-0.48 0.129-1.031 0.203-1.6 0.203s-1.12-0.074-1.645-0.213l0.045 0.010c1.6 1.6 3.2 4.8 6.4 4.8-1.917 1.206-4.248 1.922-6.746 1.922-1.012 0-1.996-0.117-2.94-0.339l0.087 0.017 9.6 3.2c10.604 0 19.2-8.596 19.2-19.2v0l3.2-3.2z"></path>
</svg>
